# xmcd
#
# Track frame offsets: 
#        150
#        121282
#        173730
#
# Disc length: 2608 seconds
#
# Revision: 5
# Processed by: cddbd v1.5.2PL0 Copyright (c) Steve Scherf et al.
# Submitted via: ExactAudioCopy v0.95b4
#
DISCID=1d0a2e03
DTITLE=Sonny Rollins Quintet - Rollins Plays For Bird
DYEAR=1956
DGENRE=Jazz
TTITLE0=Medley: I Remember You, My Melancholy Baby, Old Folks, They Ca
TTITLE0=n't Take That Away From Me, Just Friends, My Little Suede Shoe
TTITLE0=s, Star Eyes
TTITLE1=Kids Know
TTITLE2=I've Grown Accustomed To Your Face
EXTD=YEAR: 1956
EXTT0=Sonny Rollins, Kenny Dorham, \nWade Legge, George Morrow, \nMax 
EXTT0=Roach
EXTT1=Sonny Rollins - Sonny Rollins, Kenny Dorham, \nWade Legge, Georg
EXTT1=e Morrow, \nMax Roach
EXTT2=Lerner - Loewe - Sonny Rollins, Kenny Dorham, \nWade Legge, Geor
EXTT2=ge Morrow, \nMax Roach
PLAYORDER=
